<svg width="40" height="40" viewBox="0 0 40 40" fill="none" xmlns="http://www.w3.org/2000/svg">
  <g clip-path="url(#clip0)">
    <path d="M35.368 12.3389L24.9194 11.3699L20.7689 1.73212C20.4783 1.05728 19.5215 1.05728 19.231 1.73212L15.0805 11.3698L4.63196 12.3389C3.90032 12.4068 3.6047 13.3168 4.15665 13.8017L12.0401 20.7272L9.73299 30.9638C9.57143 31.6806 10.3456 32.243 10.9773 31.8679L20 26.5104L29.0226 31.8679C29.6544 32.243 30.4284 31.6806 30.2669 30.9638L27.9597 20.7272L35.8433 13.8017C36.3952 13.3168 36.0995 12.4068 35.368 12.3389Z" fill="#FFDC64"/>
    <path d="M9.31937 1.40084C9.85203 2.14069 11.3555 5.31804 12.215 7.16976C12.3502 7.46085 11.9849 7.72382 11.7517 7.50327C10.2684 6.10077 7.73203 3.66702 7.19937 2.92709C6.77788 2.3417 6.91078 1.52545 7.49625 1.10396C8.08164 0.68248 8.89789 0.815449 9.31937 1.40084Z" fill="#FF9F00"/>
    <path d="M30.6817 1.40084C30.1491 2.14069 28.6456 5.31804 27.7861 7.16976C27.651 7.46085 28.0162 7.72382 28.2494 7.50327C29.7328 6.10077 32.269 3.66694 32.8018 2.92709C33.2232 2.3417 33.0903 1.52545 32.5049 1.10396C31.9195 0.68248 31.1032 0.815449 30.6817 1.40084Z" fill="#FF9F00"/>
    <path d="M39.0988 23.0971C38.232 22.8145 34.7481 22.3475 32.7228 22.0913C32.4044 22.0509 32.2649 22.4788 32.5458 22.634C34.3327 23.6211 37.422 25.298 38.2888 25.5806C38.9745 25.8043 39.7118 25.4297 39.9355 24.7438C40.1592 24.058 39.7845 23.3208 39.0988 23.0971Z" fill="#FF9F00"/>
    <path d="M0.901908 23.0971C1.76863 22.8145 5.25262 22.3475 7.27786 22.0913C7.59622 22.0509 7.73575 22.4788 7.45489 22.634C5.66793 23.6211 2.57863 25.298 1.71191 25.5806C1.02613 25.8043 0.28886 25.4297 0.0651881 24.7438C-0.158484 24.058 0.216126 23.3208 0.901908 23.0971Z" fill="#FF9F00"/>
    <path d="M18.734 37.838C18.734 36.9264 19.3703 33.4693 19.7547 31.4644C19.8151 31.1493 20.2652 31.1493 20.3256 31.4644C20.7099 33.4693 21.3463 36.9264 21.3463 37.838C21.3463 38.5593 20.7615 39.1441 20.0402 39.1441C19.3188 39.1442 18.734 38.5593 18.734 37.838Z" fill="#FF9F00"/>
    <path d="M22.2782 5.23682L20.7689 1.73212C20.4782 1.05728 19.5214 1.05728 19.2309 1.73212L15.0804 11.3698L4.63196 12.3389C3.90032 12.4068 3.6047 13.3168 4.15665 13.8017L12.0401 20.7272L9.73298 30.9638C9.57142 31.6806 10.3456 32.243 10.9773 31.8679L12.1781 31.1548C14.1468 18.4111 19.6814 9.0562 22.2782 5.23682Z" fill="#FFC850"/>
  </g>
  <defs>
    <clipPath id="clip0">
      <rect width="40" height="40" fill="white"/>
    </clipPath>
  </defs>
</svg>
