<svg width="25" height="25" viewBox="0 0 25 25" fill="none" xmlns="http://www.w3.org/2000/svg">
<g clip-path="url(#clip0_5837_2017)">
<path d="M12.5 3C13.9062 3 15.1562 3.82031 15.7812 5.03125C17.0703 4.60156 18.5547 4.91406 19.5703 5.92969C20.5859 6.94531 20.8984 8.42969 20.4688 9.71875C21.6797 10.3438 22.5 11.5938 22.5 13C22.5 14.4453 21.6797 15.6953 20.4688 16.3203C20.8984 17.6094 20.5859 19.0547 19.5703 20.0703C18.5547 21.0859 17.0703 21.3984 15.7812 21.0078C15.1562 22.2188 13.9062 23 12.5 23C11.0547 23 9.80469 22.2188 9.17969 21.0078C7.89062 21.3984 6.44531 21.0859 5.42969 20.0703C4.41406 19.0547 4.10156 17.6094 4.49219 16.3203C3.28125 15.6953 2.5 14.4453 2.5 13C2.5 11.5938 3.28125 10.3438 4.49219 9.71875C4.10156 8.42969 4.41406 6.94531 5.42969 5.92969C6.44531 4.91406 7.89062 4.60156 9.17969 5.03125C9.80469 3.82031 11.0547 3 12.5 3ZM10 11.75C10.6641 11.75 11.25 11.2031 11.25 10.5C11.25 9.83594 10.6641 9.25 10 9.25C9.29688 9.25 8.75 9.83594 8.75 10.5C8.75 11.2031 9.29688 11.75 10 11.75ZM16.25 15.5C16.25 14.8359 15.6641 14.25 15 14.25C14.2969 14.25 13.75 14.8359 13.75 15.5C13.75 16.2031 14.2969 16.75 15 16.75C15.6641 16.75 16.25 16.2031 16.25 15.5ZM15.6641 11.1641C16.0156 10.8125 16.0156 10.2266 15.6641 9.875C15.2734 9.48438 14.6875 9.48438 14.3359 9.875L9.33594 14.8359C8.94531 15.2266 8.94531 15.8125 9.33594 16.1641C9.6875 16.5547 10.2734 16.5547 10.625 16.1641L15.6641 11.1641Z" fill="#1F2937"/>
</g>
<defs>
<clipPath id="clip0_5837_2017">
<rect width="24" height="24" fill="white" transform="translate(0.5 0.5)"/>
</clipPath>
</defs>
</svg>
