<svg width="24" height="24" viewBox="0 0 24 24" fill="none" xmlns="http://www.w3.org/2000/svg">
<g clip-path="url(#clip0_7514_5339)">
<path d="M3.875 5C2.82031 5 2 5.85938 2 6.875C2 7.5 2.27344 8.04688 2.74219 8.39844L11.2188 14.7656C11.6875 15.1172 12.2734 15.1172 12.7422 14.7656L21.2188 8.39844C21.6875 8.04688 22 7.5 22 6.875C22 5.85938 21.1406 5 20.125 5H3.875ZM2 9.375V17.5C2 18.9062 3.09375 20 4.5 20H19.5C20.8672 20 22 18.9062 22 17.5V9.375L13.4844 15.7812C12.5859 16.4453 11.375 16.4453 10.4766 15.7812L2 9.375Z" fill="#6B7280"/>
</g>
<defs>
<clipPath id="clip0_7514_5339">
<rect width="24" height="24" fill="white"/>
</clipPath>
</defs>
</svg>
