<svg width="80" height="56" viewBox="0 0 80 56" fill="none" xmlns="http://www.w3.org/2000/svg">
<path d="M20.8018 6.38199L20.9238 27.0513L22.526 26.8805L21.287 6.40931L20.8018 6.38199Z" fill="white"/>
<path d="M22.495 26.3541L21.2886 6.41037L21.1625 6.40353L20.8047 6.644V6.74921C20.9443 6.80659 21.191 6.80796 21.2086 6.7779C21.1964 7.20555 21.9542 26.3227 21.9542 26.3227L22.495 26.3541Z" fill="#A8ACAF"/>
<path d="M21.6805 6.29096C21.6791 6.2814 21.6778 6.27184 21.6764 6.26227C21.671 6.22675 21.6615 6.19123 21.6507 6.15843C21.6479 6.15024 21.6439 6.14204 21.6398 6.13384C21.6303 6.10925 21.6195 6.08465 21.6059 6.06279C21.5991 6.0505 21.5924 6.03683 21.5842 6.0259C21.568 5.99994 21.5503 5.97672 21.5314 5.95349C21.5192 5.93983 21.507 5.92753 21.4934 5.91523C21.4826 5.9043 21.4704 5.89337 21.4582 5.88244C21.3538 5.79227 21.2237 5.73352 21.0759 5.72532C20.7208 5.70483 20.4158 5.97945 20.3968 6.33742C20.3887 6.47951 20.428 6.61341 20.4998 6.72408C20.5134 6.74594 20.5296 6.7678 20.5459 6.78693C20.5581 6.80059 20.5703 6.81425 20.5825 6.82792C20.5961 6.84158 20.611 6.85524 20.6259 6.86891C20.6408 6.88257 20.6571 6.89487 20.6733 6.9058C20.6937 6.92083 20.7154 6.93449 20.7384 6.94542C20.7479 6.95088 20.7587 6.95635 20.7682 6.96181C20.7994 6.97684 20.8319 6.98914 20.8658 6.9987C20.8739 7.00144 20.8821 7.0028 20.8902 7.00417C20.9268 7.01373 20.9648 7.02056 21.0041 7.02193C21.2711 7.03696 21.5083 6.88667 21.6195 6.6585C21.6561 6.58335 21.6791 6.49864 21.6845 6.40847C21.6873 6.36748 21.6845 6.32922 21.6805 6.29096Z" fill="white"/>
<path opacity="0.34" d="M21.4129 5.84262C21.4834 5.95329 21.524 6.08719 21.5159 6.22928C21.4956 6.58725 21.1919 6.86187 20.8368 6.84138C20.7107 6.83455 20.5955 6.78946 20.4993 6.72115C20.6077 6.89057 20.7893 7.0067 21.0035 7.019C21.3587 7.03949 21.6637 6.76487 21.6826 6.4069C21.6962 6.176 21.5864 5.96832 21.4129 5.84262Z" fill="#AAAEB1"/>
<path d="M73.7319 23.7183C70.53 25.2164 69.4696 40.596 71.7372 42.9501C74.0492 43.2989 75.9033 42.95 76.8586 41.7077C77.8139 40.4653 81.643 32.3349 77.7762 25.6048C76.3003 23.5415 74.6546 23.5205 73.7319 23.7183Z" fill="#07090C"/>
<path opacity="0.8" d="M76.5038 24.3028C75.4278 23.5472 74.3949 23.5766 73.7319 23.7181C70.53 25.2161 69.4696 40.5958 71.7372 42.9499C72.8073 43.1118 73.7791 43.122 74.6091 42.9647C72.3487 41.4945 73.3124 25.9834 76.5038 24.3028Z" fill="#424446"/>
<path d="M21.4435 24.3023C15.9252 25.6044 14.7947 41.0694 22.3964 41.6938C24.1518 32.5943 21.4435 24.3023 21.4435 24.3023Z" fill="#07090C"/>
<path opacity="0.8" d="M18.463 26.9504C16.6412 30.3757 17.9479 38.2127 19.0988 40.064C19.9283 40.9795 21.0182 41.582 22.3954 41.6954C24.1508 32.5959 21.4424 24.3039 21.4424 24.3039C20.2171 24.5908 19.2086 25.58 18.463 26.9504Z" fill="#515355"/>
<path opacity="0.4" d="M22.245 27.5964C21.8492 25.5456 21.4439 24.3023 21.4439 24.3023C18.8481 24.9144 17.2228 28.6635 17.0222 32.526C19.4283 31.5901 21.1348 29.6541 22.245 27.5964Z" fill="#07090C"/>
<path d="M27.1809 13.336C17.2436 20.621 19.6985 42.4476 25.2113 47.2104C30.7255 51.9747 61.5756 56.3414 69.9785 46.4166C72.8671 42.9763 77.995 24.9194 70.6793 16.0699C63.2389 7.07288 39.6963 4.16131 27.1809 13.336Z" fill="#FFDE5A"/>
<path d="M35.0697 9.7711C34.7254 10.1578 35.3814 10.0922 37.9881 9.76837C39.3341 9.60168 43.0197 9.24645 46.5427 9.34209C50.6336 9.45412 54.3017 9.72602 53.525 8.1944C47.4292 7.34867 40.8468 7.89519 35.0697 9.7711Z" fill="#FB9825"/>
<path d="M34.762 9.55201C34.4177 9.93867 35.0738 9.87309 37.6805 9.54927C39.0265 9.38259 42.7121 9.02735 46.2351 9.12299C50.326 9.23503 54.0361 9.69 53.2607 8.15976C47.165 7.31265 40.5392 7.67609 34.762 9.55201Z" fill="#FCB917"/>
<path d="M21.6909 40.565C22.5476 43.5653 23.7757 45.9686 25.2125 47.2106C30.7268 51.9749 61.5769 56.3415 69.9797 46.4168C72.8683 42.9765 77.9962 24.9196 70.6805 16.0701C69.4524 14.5849 67.7837 13.2664 65.8006 12.1406C73.8524 19.3301 70.0895 37.1055 66.6248 41.6935C63.1587 46.2815 51.2872 42.8713 41.5004 43.2374C31.7122 43.6022 23.9939 44.1774 21.6909 40.565Z" fill="#FBC900"/>
<path opacity="0.43" d="M66.2349 45.0008C51.5344 50.8226 23.6488 47.7662 21.8582 41.137C22.704 43.8695 23.8657 46.0474 25.2103 47.2087C30.7246 51.973 61.5747 56.3397 69.9775 46.4149C72.7319 43.1345 77.5209 26.5641 71.619 17.3594C75.6869 29.682 70.8735 43.3244 66.2349 45.0008Z" fill="#FDA435"/>
<path opacity="0.3" d="M34.6472 13.3538C34.6066 13.2431 34.5347 13.1461 34.4371 13.0614C30.5617 13.6831 27.1811 14.6231 25.0231 15.8938C24.1501 16.4075 23.3572 17.6973 22.7092 19.4338C24.1705 19.3286 26.0994 18.8832 28.1381 18.1249C32.1504 16.6329 35.0661 14.4974 34.6472 13.3538Z" fill="white"/>
<path d="M47.0145 7.73041C42.8246 7.72904 38.6049 8.30289 34.762 9.55168C34.4177 9.93834 35.0738 9.87276 37.6805 9.54894C38.8692 9.40139 41.8812 9.10763 44.9948 9.10763C45.9301 8.67452 46.6472 8.19768 47.0145 7.73041Z" fill="#FBC900"/>
<path d="M75.8308 2.74146L73.5177 24.4153L75.2228 24.4277L76.3379 2.82805L75.8308 2.74146Z" fill="white"/>
<path d="M75.2508 23.8716L76.3379 2.82845L76.2061 2.80623L75.8014 3.01547L75.789 3.12572C75.929 3.20253 76.1883 3.23343 76.2104 3.20403C76.147 3.65071 74.6858 23.7741 74.6858 23.7741L75.2508 23.8716Z" fill="#A8ACAF"/>
<path d="M76.7676 2.74865C76.7673 2.73847 76.767 2.72828 76.7667 2.71809C76.7652 2.68021 76.7595 2.64184 76.752 2.60617C76.7501 2.59725 76.7468 2.58817 76.7435 2.57909C76.7365 2.55217 76.728 2.52509 76.7164 2.50055C76.7107 2.48685 76.7053 2.47172 76.698 2.45929C76.684 2.43012 76.6683 2.40366 76.6512 2.37704C76.64 2.36126 76.6287 2.3469 76.6159 2.33239C76.6058 2.31963 76.5943 2.30671 76.5829 2.29379C76.4841 2.18675 76.3547 2.10955 76.2008 2.08322C75.831 2.01912 75.4789 2.27035 75.4167 2.64327C75.3914 2.79123 75.4167 2.93628 75.479 3.0609C75.4906 3.08544 75.5051 3.11031 75.5198 3.13231C75.531 3.14809 75.5422 3.16388 75.5534 3.17966C75.5659 3.19561 75.58 3.21172 75.594 3.22783C75.608 3.24394 75.6236 3.25878 75.6393 3.27219C75.6589 3.29038 75.68 3.30731 75.7029 3.32153C75.7122 3.3284 75.7229 3.33543 75.7322 3.34229C75.7631 3.36179 75.7957 3.37858 75.8301 3.39267C75.8383 3.39651 75.8467 3.39892 75.855 3.40133C75.8923 3.41575 75.9312 3.42746 75.9723 3.43361C76.2504 3.48142 76.5167 3.35236 76.6602 3.12655C76.7074 3.05218 76.7416 2.96616 76.7579 2.8723C76.7656 2.82966 76.7673 2.78924 76.7676 2.74865Z" fill="white"/>
<path opacity="0.34" d="M76.5442 2.24818C76.605 2.37263 76.6318 2.51785 76.6065 2.66581C76.5429 3.03857 76.1922 3.28997 75.8224 3.22586C75.6911 3.20357 75.5756 3.14248 75.4829 3.05933C75.5765 3.24992 75.7531 3.39344 75.9762 3.43204C76.346 3.49614 76.6981 3.24491 76.7603 2.87199C76.8017 2.6316 76.7112 2.40075 76.5442 2.24818Z" fill="#AAAEB1"/>
<path opacity="0.4" d="M76.5043 24.3035C72.9897 27.5277 75.854 33.9471 79.2357 35.1089C79.7111 32.1988 79.5844 28.7497 77.7781 25.6053C77.3592 25.0211 76.9275 24.6007 76.5043 24.3035Z" fill="#222C3B"/>
<path d="M29.9847 17.0424C25.9867 19.1996 23.0443 37.2331 28.2527 40.7623C29.8694 41.8157 35.7318 40.1927 42.9403 40.4379C52.6047 40.7663 63.6883 42.4305 65.6487 41.1085C69.0719 38.7991 71.2128 21.186 66.8073 17.3093C62.4018 13.4325 38.0283 12.7013 29.9847 17.0424Z" fill="#515355"/>
<path d="M29.1131 16.1984C25.1151 18.3557 22.1727 36.3891 27.3811 39.9184C28.9978 40.9718 34.8602 39.3488 42.0687 39.594C51.7331 39.9224 62.8167 41.5866 64.7771 40.2646C68.2003 37.9552 70.3412 20.3421 65.9357 16.4653C61.5329 12.5887 37.1568 11.856 29.1131 16.1984Z" fill="#222C3B"/>
<path opacity="0.8" d="M68.3474 23.7383C68.1298 20.5146 67.3889 17.7431 65.9368 16.4654C61.5326 12.5887 37.1565 11.856 29.1128 16.1984C26.4802 17.6194 24.3058 25.9226 24.6142 32.4368C26.2782 26.6469 41.4552 18.4674 68.3474 23.7383Z" fill="black"/>
<path opacity="0.8" d="M28.0125 39.068C32.4256 36.4181 50.5098 35.2052 62.9056 39.8144C54.4836 38.7842 46.1536 37.9448 43.3053 37.9548C40.4556 37.9647 28.8053 38.6339 28.0125 39.068Z" fill="#07090C"/>
<path opacity="0.3" d="M65.9379 16.4654C61.5338 12.5887 37.1576 11.8561 29.1139 16.1984C28.226 16.6775 27.3909 17.9389 26.6852 19.6499C29.1139 16.1984 33.9637 14.6214 47.0192 14.4681C58.5645 14.3327 63.3126 16.0079 66.8014 17.5326C66.5467 17.112 66.2618 16.7497 65.9379 16.4654Z" fill="white"/>
<g filter="url(#filter0_d_7569_45050)">
<path d="M45.3032 36.6748C45.3099 36.675 45.3166 36.6753 45.3246 36.6756C47.5628 36.752 49.5701 35.755 50.3224 34.1951C50.4859 33.8561 50.3457 33.4493 50.0094 33.2845C49.6731 33.121 49.2695 33.261 49.106 33.6C48.601 34.6501 47.0303 35.3708 45.3704 35.3132C45.365 35.313 45.3597 35.3128 45.3544 35.3126C43.704 35.2513 42.4159 34.4595 41.9086 33.1925C41.7689 32.8436 41.3753 32.6753 41.0292 32.8161C40.6831 32.957 40.5162 33.3538 40.6558 33.7027C41.3676 35.4827 43.104 36.5931 45.3032 36.6748Z" fill="white"/>
</g>
<path fill-rule="evenodd" clip-rule="evenodd" d="M38.4101 29.2158C36.3641 32.3672 32.1577 33.2278 29.0695 31.1672C27.8628 30.3712 26.9944 29.2566 26.5006 28.0067L22.8149 22.9404L26.4805 23.0299C26.65 22.5909 26.8672 22.1626 27.1337 21.7522C29.1797 18.6008 33.3861 17.7402 36.4743 19.8008C39.6007 21.8631 40.4545 26.1029 38.4101 29.2158Z" fill="black"/>
<g filter="url(#filter1_d_7569_45050)">
<path d="M36.8166 31.1302C39.4963 28.8403 39.8243 24.8075 37.5525 22.1065C35.2807 19.4054 31.2797 19.0748 28.6 21.3647C25.9203 23.6546 25.5922 27.6874 27.8641 30.3885C30.1359 33.0895 34.1368 33.4201 36.8166 31.1302Z" fill="#FEFEFE"/>
</g>
<path d="M36.9428 30.0131C38.9212 28.3344 39.1659 25.3398 37.5005 23.3457C35.8351 21.3516 32.8641 21.1049 30.8858 22.7836C28.9074 24.4623 28.6626 27.4569 30.3281 29.451C31.9918 31.4851 34.9628 31.7318 36.9428 30.0131Z" fill="black"/>
<path d="M30.845 22.7822C29.8972 23.5833 29.2914 24.7595 29.1997 25.9976C29.1064 27.2758 29.4926 28.4942 30.2873 29.4496C30.892 30.1966 31.7449 30.7137 32.6491 30.9525C34.1435 31.3367 35.7475 31.0043 36.9021 30.0117C37.6845 29.3639 38.1992 28.4643 38.4378 27.5128C38.4378 27.5128 38.4361 27.5528 38.3965 27.5511C38.2657 27.826 38.1332 28.1409 37.9248 28.3724C37.756 28.6057 37.5889 28.7989 37.3821 28.9904C37.1753 29.1819 36.9289 29.3718 36.6841 29.5216C36.4393 29.6715 36.1962 29.7813 35.9548 29.8512C35.672 29.9593 35.3909 30.0275 35.0718 30.054C34.7923 30.0821 34.5129 30.1103 34.2368 30.0585C33.9591 30.0467 33.6433 29.9932 33.3689 29.9013C33.0945 29.8095 32.8201 29.7177 32.5871 29.5876C32.3143 29.4558 32.083 29.2857 31.8533 29.0756C31.7376 28.9905 31.6632 28.8671 31.5476 28.7821C31.4335 28.657 31.3575 28.5736 31.2832 28.4503C31.0949 28.2019 30.9462 27.9551 30.8372 27.7101C30.7282 27.4651 30.6209 27.18 30.5516 26.9367C30.484 26.6533 30.4181 26.33 30.4315 26.01C30.4331 25.97 30.4331 25.97 30.4348 25.93C30.4399 25.81 30.4466 25.6501 30.4516 25.5301C30.4566 25.4101 30.4616 25.2901 30.5064 25.1718C30.5527 25.0135 30.5578 24.8935 30.6041 24.7352C30.6058 24.6952 30.6489 24.6169 30.6505 24.5769L30.6522 24.537C30.6556 24.457 30.6969 24.4187 30.7399 24.3404C30.8294 24.1038 30.9601 23.8289 31.1272 23.6356C31.2116 23.519 31.296 23.4024 31.3804 23.2858C31.4218 23.2475 31.4234 23.2075 31.4631 23.2092C31.5475 23.0926 31.6699 23.0177 31.7543 22.9011C31.837 22.8245 31.8783 22.7862 31.9611 22.7095C32.0851 22.5946 32.2075 22.5197 32.3713 22.4065C32.4523 22.3699 32.535 22.2932 32.616 22.2566C32.6971 22.22 32.8195 22.1451 32.9005 22.1085C33.1833 22.0003 33.4661 21.8922 33.7869 21.8257C33.9076 21.7908 34.0266 21.7958 34.1077 21.7592C34.1473 21.7609 34.1473 21.7609 34.187 21.7626C34.3457 21.7693 34.4664 21.7344 34.6252 21.7412C34.6648 21.7429 34.7045 21.7445 34.7839 21.7479C33.4035 21.4888 31.9566 21.868 30.845 22.7822Z" fill="#353535"/>
<path d="M29.3909 26.2062C30.4919 26.4935 31.4525 26.334 31.5934 25.8191C31.7342 25.3042 30.9674 24.6305 29.8665 24.3432C28.7655 24.0559 27.8048 24.2154 27.664 24.7303C27.5232 25.2452 28.2916 25.8789 29.3909 26.2062Z" fill="#FEFEFE"/>
<path fill-rule="evenodd" clip-rule="evenodd" d="M53.5506 29.7347C55.3551 33.0326 59.4852 34.2105 62.7189 32.3903C63.9851 31.6864 64.9362 30.6372 65.5217 29.4241L69.573 24.6578L65.9079 24.4678C65.7719 24.0188 65.5878 23.577 65.3536 23.149C63.5491 19.8511 59.419 18.6732 56.1853 20.4934C52.9134 22.3122 51.7449 26.4752 53.5506 29.7347Z" fill="black"/>
<g filter="url(#filter2_d_7569_45050)">
<path d="M54.9973 31.7639C52.495 29.2785 52.467 25.2324 54.9328 22.7102C57.3985 20.1879 61.4127 20.1597 63.9151 22.6451C66.4174 25.1305 66.4454 29.1766 63.9796 31.6989C61.5139 34.2211 57.4997 34.2493 54.9973 31.7639Z" fill="#FEFEFE"/>
</g>
<path d="M54.9558 30.6413C53.1075 28.8183 53.0855 25.8137 54.8942 23.9507C56.7029 22.0877 59.6838 22.0656 61.5321 23.8886C63.3803 25.7117 63.4023 28.7163 61.5936 30.5793C59.7837 32.4823 56.8028 32.5044 54.9558 30.6413Z" fill="black"/>
<path d="M61.5684 23.8909C62.4542 24.7611 62.971 25.9797 62.9706 27.2212C62.9688 28.5028 62.4933 29.6887 61.63 30.5815C60.9716 31.2808 60.0828 31.7322 59.1634 31.9022C57.6447 32.1727 56.0699 31.7204 54.9921 30.6436C54.26 29.9387 53.8135 29.0028 53.6461 28.0361C53.6461 28.0361 53.6448 28.0761 53.6845 28.0774C53.7945 28.3613 53.9032 28.6853 54.0939 28.9319C54.2449 29.1772 54.3972 29.3825 54.5892 29.589C54.7812 29.7956 55.0129 30.0035 55.2458 30.1713C55.4788 30.3392 55.7131 30.4671 55.9487 30.5549C56.2226 30.6841 56.4979 30.7732 56.8141 30.8237C57.0907 30.8728 57.3673 30.922 57.6464 30.8911C57.9243 30.9003 58.2431 30.8707 58.5235 30.7998C58.804 30.7289 59.0844 30.658 59.3265 30.5458C59.6082 30.435 59.8516 30.2828 60.0962 30.0905C60.2179 30.0144 60.3011 29.897 60.4228 29.8209C60.5458 29.7048 60.6277 29.6274 60.711 29.51C60.9173 29.2765 61.0838 29.0416 61.2106 28.8055C61.3375 28.5693 61.4656 28.2932 61.5528 28.0558C61.6413 27.7783 61.731 27.4608 61.7414 27.1408C61.7427 27.1008 61.7427 27.1008 61.744 27.0608C61.7478 26.9407 61.753 26.7807 61.7569 26.6607C61.7608 26.5406 61.7647 26.4206 61.7289 26.2993C61.6944 26.1379 61.6982 26.0179 61.6637 25.8566C61.665 25.8166 61.6279 25.7352 61.6292 25.6952L61.6305 25.6552C61.6331 25.5752 61.5947 25.5339 61.5576 25.4526C61.486 25.2099 61.376 24.9259 61.2237 24.7206C61.1482 24.598 61.0727 24.4754 60.9972 24.3527C60.9588 24.3114 60.9601 24.2714 60.9204 24.2701C60.8449 24.1475 60.7284 24.0635 60.6529 23.9409C60.5761 23.8583 60.5377 23.817 60.4609 23.7343C60.3457 23.6104 60.2292 23.5265 60.0743 23.4012C59.9962 23.3586 59.9194 23.276 59.8413 23.2333C59.7632 23.1907 59.6468 23.1068 59.5687 23.0642C59.2947 22.935 59.0207 22.8058 58.7058 22.7154C58.588 22.6715 58.4689 22.6675 58.3908 22.6249C58.3511 22.6236 58.3511 22.6236 58.3114 22.6223C58.1527 22.6171 58.0349 22.5732 57.8761 22.5679C57.8364 22.5666 57.7967 22.5653 57.7173 22.5627C59.1131 22.4084 60.5278 22.8954 61.5684 23.8909Z" fill="#353535"/>
<path d="M62.7658 27.4139C61.6466 27.6175 60.7005 27.3861 60.5982 26.862C60.496 26.338 61.3106 25.7239 62.4297 25.5204C63.5489 25.3169 64.4951 25.5483 64.5973 26.0723C64.6996 26.5964 63.8863 27.1704 62.7658 27.4139Z" fill="#FEFEFE"/>
<defs>
<filter id="filter0_d_7569_45050" x="22.0678" y="13.3851" width="47.7042" height="41.8333" filterUnits="userSpaceOnUse" color-interpolation-filters="sRGB">
<feFlood flood-opacity="0" result="BackgroundImageFix"/>
<feColorMatrix in="SourceAlpha" type="matrix" values="0 0 0 0 0 0 0 0 0 0 0 0 0 0 0 0 0 0 127 0" result="hardAlpha"/>
<feOffset dx="0.421333" dy="-0.421333"/>
<feGaussianBlur stdDeviation="9.48"/>
<feComposite in2="hardAlpha" operator="out"/>
<feColorMatrix type="matrix" values="0 0 0 0 1 0 0 0 0 1 0 0 0 0 1 0 0 0 1 0"/>
<feBlend mode="normal" in2="BackgroundImageFix" result="effect1_dropShadow_7569_45050"/>
<feBlend mode="normal" in="SourceGraphic" in2="effect1_dropShadow_7569_45050" result="shape"/>
</filter>
<filter id="filter1_d_7569_45050" x="0.164822" y="0.200735" width="51.0571" height="51.1581" filterUnits="userSpaceOnUse" color-interpolation-filters="sRGB">
<feFlood flood-opacity="0" result="BackgroundImageFix"/>
<feColorMatrix in="SourceAlpha" type="matrix" values="0 0 0 0 0 0 0 0 0 0 0 0 0 0 0 0 0 0 127 0" result="hardAlpha"/>
<feOffset dx="-7.01489" dy="-0.46766"/>
<feGaussianBlur stdDeviation="9.58702"/>
<feComposite in2="hardAlpha" operator="out"/>
<feColorMatrix type="matrix" values="0 0 0 0 1 0 0 0 0 1 0 0 0 0 1 0 0 0 1 0"/>
<feBlend mode="normal" in2="BackgroundImageFix" result="effect1_dropShadow_7569_45050"/>
<feBlend mode="normal" in="SourceGraphic" in2="effect1_dropShadow_7569_45050" result="shape"/>
</filter>
<filter id="filter2_d_7569_45050" x="26.9129" y="1.15789" width="51.0568" height="51.1579" filterUnits="userSpaceOnUse" color-interpolation-filters="sRGB">
<feFlood flood-opacity="0" result="BackgroundImageFix"/>
<feColorMatrix in="SourceAlpha" type="matrix" values="0 0 0 0 0 0 0 0 0 0 0 0 0 0 0 0 0 0 127 0" result="hardAlpha"/>
<feOffset dx="-7.01489" dy="-0.46766"/>
<feGaussianBlur stdDeviation="9.58702"/>
<feComposite in2="hardAlpha" operator="out"/>
<feColorMatrix type="matrix" values="0 0 0 0 1 0 0 0 0 1 0 0 0 0 1 0 0 0 1 0"/>
<feBlend mode="normal" in2="BackgroundImageFix" result="effect1_dropShadow_7569_45050"/>
<feBlend mode="normal" in="SourceGraphic" in2="effect1_dropShadow_7569_45050" result="shape"/>
</filter>
</defs>
</svg>
