<svg width="32" height="32" viewBox="0 0 32 32" fill="none" xmlns="http://www.w3.org/2000/svg">
<g clip-path="url(#clip0_7569_44229)">
<path d="M24.4476 28.6373C24.6645 28.5831 24.8814 28.4746 25.0442 28.3119L31.5527 21.8034C32.0951 21.261 32.0951 20.3932 31.5527 19.9051L29.3289 17.6813C28.7866 17.1389 27.973 17.1389 27.4306 17.6813L20.9222 24.1898C20.7595 24.3525 20.651 24.5695 20.5968 24.7864L20.0544 27.9864C19.9459 28.7458 20.5968 29.3424 21.3018 29.2339L24.4476 28.6373Z" fill="#1479F3"/>
<path d="M20.9221 0H5.73571C2.5899 0 0.0407715 2.54913 0.0407715 5.69494V26.3051C0.0407715 29.4509 2.5899 32 5.73571 32H16.095C16.4747 32 16.8543 31.8373 17.1798 31.5661C17.6136 31.1323 17.6679 30.4271 17.3425 29.8848C14.4679 25.4915 15.7153 19.6339 20.1086 16.7593C21.6272 15.7288 23.4713 15.2407 25.3153 15.2407C26.0746 15.2407 26.6713 14.6441 26.6713 13.8848V5.69494C26.617 2.54913 24.0679 0 20.9221 0ZM11.6475 25.1119H6.22383C5.84415 25.1119 5.51877 24.9492 5.24758 24.7322C4.9764 24.461 4.8679 24.1356 4.8679 23.7559C4.8679 22.9966 5.46452 22.4 6.22383 22.4H11.6476C12.0273 22.4 12.3526 22.5627 12.6238 22.7797C12.895 23.0509 13.0035 23.3763 13.0035 23.7559C13.0035 24.5152 12.4068 25.1119 11.6475 25.1119ZM13.817 18.2779H6.22383C5.84415 18.2779 5.51877 18.1152 5.24758 17.8983C4.9764 17.6271 4.8679 17.3016 4.8679 16.922C4.8679 16.1627 5.46452 15.5661 6.22383 15.5661H13.8171C14.1968 15.5661 14.5221 15.7288 14.7933 15.9458C15.0645 16.2169 15.173 16.5424 15.173 16.922C15.173 17.6271 14.5763 18.2779 13.817 18.2779ZM17.0713 11.2271H6.22383C5.84415 11.2271 5.51877 11.0644 5.24758 10.8474C4.9764 10.5763 4.8679 10.2508 4.8679 9.87119C4.8679 9.11187 5.46452 8.51525 6.22383 8.51525H17.0713C17.451 8.51525 17.7763 8.67794 18.0475 8.89494C18.3187 9.16613 18.4272 9.49156 18.4272 9.87119C18.4272 10.5763 17.8306 11.2271 17.0713 11.2271Z" fill="#1479F3"/>
</g>
<defs>
<clipPath id="clip0_7569_44229">
<rect width="32" height="32" fill="white"/>
</clipPath>
</defs>
</svg>
