<svg width="24" height="25" viewBox="0 0 24 25" fill="none" xmlns="http://www.w3.org/2000/svg">
<path fill-rule="evenodd" clip-rule="evenodd" d="M3 7.16211C3 5.87082 3.82629 4.7244 5.05132 4.31606L11.0513 2.31606C11.6671 2.11079 12.3329 2.11079 12.9487 2.31606L18.9487 4.31606C20.1737 4.7244 21 5.87082 21 7.16211V12.4998C21 18.0018 15.4398 21.3416 13.0601 22.519C12.3875 22.8518 11.6125 22.8518 10.9399 22.519C8.56019 21.3416 3 18.0018 3 12.4998V7.16211ZM15 9.49988C15 11.1567 13.6569 12.4999 12 12.4999C10.3431 12.4999 9 11.1567 9 9.49988C9 7.84302 10.3431 6.49988 12 6.49988C13.6569 6.49988 15 7.84302 15 9.49988ZM12 14.4999C13.7944 14.4999 15.431 15.175 16.6698 16.2851C17.0352 16.6125 17.0409 17.1709 16.6998 17.5234C16.6392 17.586 16.5779 17.648 16.5157 17.7095C15.0429 19.1669 13.2698 20.1838 12.1732 20.7264C12.0595 20.7826 11.9405 20.7826 11.8269 20.7264C10.7303 20.1838 8.95721 19.1669 7.48435 17.7095C7.42218 17.648 7.36082 17.586 7.30031 17.5234C6.95912 17.1709 6.96487 16.6125 7.33023 16.2851C8.56904 15.175 10.2057 14.4999 12 14.4999Z" fill="#111111"/>
</svg>
