<svg width="24" height="25" viewBox="0 0 24 25" fill="none" xmlns="http://www.w3.org/2000/svg">
<g clip-path="url(#clip0_5837_2048)">
<path d="M17.5859 18.0391C16.6875 16.5156 15.0859 15.5 13.25 15.5H10.75C8.875 15.5 7.27344 16.5156 6.41406 18.0391C7.78125 19.5625 9.77344 20.5 12 20.5C14.1875 20.5 16.1797 19.5625 17.5859 18.0391ZM22 13C22 18.5469 17.5078 23 12 23C6.45312 23 2 18.5469 2 13C2 7.49219 6.45312 3 12 3C17.5078 3 22 7.49219 22 13ZM12 13.625C13.5234 13.625 14.8125 12.375 14.8125 10.8125C14.8125 9.28906 13.5234 8 12 8C10.4375 8 9.1875 9.28906 9.1875 10.8125C9.1875 12.375 10.4375 13.625 12 13.625Z" fill="#1F2937"/>
</g>
<defs>
<clipPath id="clip0_5837_2048">
<rect width="24" height="24" fill="white" transform="translate(0 0.5)"/>
</clipPath>
</defs>
</svg>
