<svg width="147" height="138" viewBox="0 0 147 138" fill="none" xmlns="http://www.w3.org/2000/svg">
  <path
    d="M72.7302 120C100.721 120 123.411 97.2541 123.411 69.1954C123.411 41.1367 100.721 18.3906 72.7302 18.3906C44.7398 18.3906 22.0491 41.1367 22.0491 69.1954C22.0491 97.2541 44.7398 120 72.7302 120Z"
    fill="#EAEEF9"
  />
  <path
    d="M35.408 36.2793H107.504C110.359 36.2793 112.602 38.5282 112.602 41.3904V87.0841C112.602 89.9463 110.359 92.1952 107.504 92.1952H35.408C32.5528 92.1952 30.3093 89.9463 30.3093 87.0841V41.3904C30.3093 38.5282 32.6547 36.2793 35.408 36.2793Z"
    fill="#DAE2EB"
  />
  <path
    d="M131.639 56.554C133.219 55.1068 133.33 52.6497 131.886 51.066C130.442 49.4824 127.991 49.3717 126.411 50.819C124.831 52.2662 124.721 54.7233 126.165 56.307C127.609 57.8907 130.06 58.0013 131.639 56.554Z"
    fill="#EAEEF9"
  />
  <path
    d="M43.4441 23.4751C44.783 23.0388 45.5157 21.597 45.0805 20.2548C44.6453 18.9125 43.207 18.1781 41.868 18.6144C40.5291 19.0506 39.7964 20.4924 40.2316 21.8346C40.6668 23.1769 42.1051 23.9113 43.4441 23.4751Z"
    fill="#EAEEF9"
  />
  <path
    d="M48.4606 15.2217C49.418 15.2217 50.1942 14.4436 50.1942 13.4839C50.1942 12.5241 49.418 11.7461 48.4606 11.7461C47.5032 11.7461 46.7271 12.5241 46.7271 13.4839C46.7271 14.4436 47.5032 15.2217 48.4606 15.2217Z"
    fill="#FF9F00"
  />
  <path
    d="M130.856 39.5504C131.757 39.5504 132.488 38.8182 132.488 37.9149C132.488 37.0116 131.757 36.2793 130.856 36.2793C129.955 36.2793 129.225 37.0116 129.225 37.9149C129.225 38.8182 129.955 39.5504 130.856 39.5504Z"
    fill="#FF9F00"
  />
  <path
    d="M90.839 15.3117C91.2963 14.8928 91.3283 14.1815 90.9104 13.7231C90.4925 13.2647 89.7829 13.2327 89.3256 13.6516C88.8683 14.0705 88.8363 14.7818 89.2543 15.2402C89.6722 15.6987 90.3817 15.7307 90.839 15.3117Z"
    fill="#EAEEF9"
  />
  <path
    d="M114.047 65.5964V88.0855C114.047 90.9477 111.702 93.4013 108.745 93.4013H34.6095C31.7542 93.4013 29.3069 91.0499 29.3069 88.0855V63.6543"
    stroke="#1479F3" stroke-width="3" stroke-linecap="round" stroke-linejoin="round"
  />
  <g filter="url(#filter0_d_14913_116903)">
    <path
      d="M107.653 53H84.3378C82.0689 53 79.8783 53.7828 78.1571 55.1915L72.0544 60.2002C70.3332 61.6088 68.1426 62.3913 65.8737 62.3913H39.3507C36.6906 62.3913 34.5 64.5828 34.5 67.2436C34.5 67.4784 34.5001 67.7131 34.5783 67.9479L39.4291 93.774C39.8202 96.2001 41.8544 98 44.2798 98H100.768C103.193 98 105.227 96.2784 105.619 93.8523L112.426 58.5566C112.895 55.8957 111.095 53.4696 108.435 53C108.201 53 107.888 53 107.653 53Z"
      fill="white"
    />
  </g>
  <g filter="url(#filter1_d_14913_116903)">
    <path
      d="M118.228 46.0723H87.8396C84.8823 46.0723 82.0272 47.0948 79.7837 48.9348L71.8297 55.477C69.5863 57.317 66.7311 58.339 63.7738 58.339H29.2044C25.7373 58.339 22.8821 61.2015 22.8821 64.677C22.8821 64.9837 22.8822 65.2903 22.9842 65.5969L29.3065 99.3305C29.8164 102.499 32.4677 104.85 35.6289 104.85H109.254C112.415 104.85 115.067 102.602 115.577 99.4328L124.448 53.3302C125.06 49.8546 122.715 46.6856 119.248 46.0723C118.942 46.0723 118.534 46.0723 118.228 46.0723Z"
      fill="white"
    />
  </g>
  <path
    d="M59.3886 81.0324C61.1908 81.0324 62.6517 79.5677 62.6517 77.7611C62.6517 75.9545 61.1908 74.4902 59.3886 74.4902C57.5864 74.4902 56.1255 75.9545 56.1255 77.7611C56.1255 79.5677 57.5864 81.0324 59.3886 81.0324Z"
    fill="#152946"
  />
  <path
    d="M85.0866 80.9308C86.8888 80.9308 88.3497 79.4666 88.3497 77.66C88.3497 75.8534 86.8888 74.3887 85.0866 74.3887C83.2844 74.3887 81.8235 75.8534 81.8235 77.66C81.8235 79.4666 83.2844 80.9308 85.0866 80.9308Z"
    fill="#152946"
  />
  <path
    d="M68.2434 57.3372C64.6743 50.386 63.8585 41.9015 66.2039 34.337C68.5493 26.7725 73.9539 20.2303 80.7862 16.5502C82.9277 15.4258 85.2731 14.5058 87.7205 14.4036C90.1678 14.3013 92.7172 15.1191 94.3488 17.0614C95.9804 18.9014 96.2863 21.8658 94.9606 23.9103C93.533 25.8525 90.7797 26.5681 88.4343 26.057C84.7632 25.3414 81.704 22.4792 80.7862 19.0036C79.8685 15.528 81.0921 11.4391 83.8454 9.08797C85.681 7.45241 88.1284 6.63462 90.4738 5.91906C101.691 2.64793 113.826 2.23904 125.247 4.69239"
    stroke="#C9D4E2" stroke-miterlimit="10" stroke-dasharray="4 4"
  />
  <path d="M75.3816 84.5293H69.1611V86.0626H75.3816V84.5293Z" fill="#152946"/>
  <path
    d="M131.264 2.0347C131.162 3.56805 131.06 4.89695 129.938 5.20361C128.816 5.51028 128.307 4.48805 127.593 3.05693C126.879 1.72804 127.287 0.399137 128.51 0.092468C129.734 -0.214201 131.468 0.194691 131.264 2.0347Z"
    fill="#DAE2EB"
  />
  <path
    d="M130.142 9.19062C130.448 7.35061 130.754 6.4306 129.734 5.91949C128.613 5.40837 127.899 6.32838 126.777 7.55505C125.757 8.67951 126.369 10.2128 127.389 10.724C128.511 11.3373 129.836 10.724 130.142 9.19062Z"
    fill="#DAE2EB"
  />
  <path
    d="M131.468 5.91862C131.366 6.63418 130.856 7.1453 130.142 7.24752C129.836 7.24752 129.53 7.24752 129.122 7.24752C127.695 7.04308 126.573 6.12307 126.675 5.20306C126.777 4.28306 128.103 3.77194 129.632 3.97639C129.938 3.97639 130.244 4.07861 130.448 4.18083C131.162 4.38528 131.57 5.10084 131.468 5.91862C131.468 5.91862 131.468 5.8164 131.468 5.91862Z"
    fill="#152946"
  />
  <path
    d="M19.9092 34.0311C19.9092 32.2934 19.9092 30.6578 21.1329 30.1467C22.4585 29.6356 23.1724 30.8622 24.0901 32.4978C25.0079 34.0311 24.6 35.5645 23.2743 36.0756C22.1526 36.5867 19.9092 36.28 19.9092 34.0311Z"
    fill="#DAE2EB"
  />
  <path
    d="M20.6223 25.6486C20.4183 27.7953 20.1124 28.9198 21.4381 29.4309C22.7637 29.942 23.4776 28.8175 24.7012 27.182C25.721 25.7508 25.0072 24.0131 23.6815 23.5019C22.3558 22.9908 20.8262 23.9108 20.6223 25.6486Z"
    fill="#DAE2EB"
  />
  <path
    d="M19.5 29.6354C19.5 28.8176 20.1118 28.2043 20.8257 28.1021C21.1316 27.9998 21.5395 27.9998 21.9474 28.1021C23.579 28.2043 24.9046 29.1243 24.8027 30.1465C24.7007 31.1687 23.375 31.8843 21.7434 31.6799C21.4375 31.6799 21.1316 31.5776 20.8257 31.4754C20.0099 31.271 19.5 30.4532 19.5 29.6354Z"
    fill="#152946"
  />
  <path d="M26.3318 29.9414C36.8351 29.9414 56.2102 36.0748 56.5161 58.4616" stroke="#C9D4E2"
        stroke-miterlimit="10" stroke-dasharray="4 4"
  />
  <defs>
    <filter id="filter0_d_14913_116903" x="24.5" y="34" width="98" height="65"
            filterUnits="userSpaceOnUse" color-interpolation-filters="sRGB"
    >
      <feFlood flood-opacity="0" result="BackgroundImageFix"/>
      <feColorMatrix in="SourceAlpha" type="matrix" values="0 0 0 0 0 0 0 0 0 0 0 0 0 0 0 0 0 0 127 0"
                     result="hardAlpha"
      />
      <feOffset dy="-9"/>
      <feGaussianBlur stdDeviation="5"/>
      <feColorMatrix type="matrix"
                     values="0 0 0 0 0.397708 0 0 0 0 0.47749 0 0 0 0 0.575 0 0 0 0.13 0"
      />
      <feBlend mode="normal" in2="BackgroundImageFix" result="effect1_dropShadow_14913_116903"/>
      <feBlend mode="normal" in="SourceGraphic" in2="effect1_dropShadow_14913_116903" result="shape"/>
    </filter>
    <filter id="filter1_d_14913_116903" x="0.88208" y="35.0723" width="145.664" height="102.777"
            filterUnits="userSpaceOnUse" color-interpolation-filters="sRGB"
    >
      <feFlood flood-opacity="0" result="BackgroundImageFix"/>
      <feColorMatrix in="SourceAlpha" type="matrix" values="0 0 0 0 0 0 0 0 0 0 0 0 0 0 0 0 0 0 127 0"
                     result="hardAlpha"
      />
      <feOffset dy="11"/>
      <feGaussianBlur stdDeviation="11"/>
      <feColorMatrix type="matrix"
                     values="0 0 0 0 0.397708 0 0 0 0 0.47749 0 0 0 0 0.575 0 0 0 0.18 0"
      />
      <feBlend mode="normal" in2="BackgroundImageFix" result="effect1_dropShadow_14913_116903"/>
      <feBlend mode="normal" in="SourceGraphic" in2="effect1_dropShadow_14913_116903" result="shape"/>
    </filter>
  </defs>
</svg>
