<svg width="60" height="60" viewBox="0 0 60 60" fill="none" xmlns="http://www.w3.org/2000/svg">
<path opacity="0.4" d="M26 2.3094C28.4752 0.880338 31.5248 0.880339 34 2.3094L51.9808 12.6906C54.456 14.1197 55.9808 16.7607 55.9808 19.6188V40.3812C55.9808 43.2393 54.456 45.8803 51.9808 47.3094L34 57.6906C31.5248 59.1197 28.4752 59.1197 26 57.6906L8.01924 47.3094C5.54403 45.8803 4.01924 43.2393 4.01924 40.3812V19.6188C4.01924 16.7607 5.54403 14.1197 8.01924 12.6906L26 2.3094Z" fill="white"/>
<path d="M25.9998 8.69221C28.475 7.26315 31.5246 7.26315 33.9998 8.69221L46.4528 15.8819C48.928 17.311 50.4528 19.952 50.4528 22.8101V37.1895C50.4528 40.0477 48.928 42.6887 46.4528 44.1177L33.9998 51.3075C31.5246 52.7365 28.475 52.7365 25.9998 51.3075L13.5469 44.1177C11.0717 42.6887 9.54689 40.0477 9.54689 37.1895V22.8101C9.54689 19.952 11.0717 17.311 13.5469 15.8819L25.9998 8.69221Z" fill="#1479F3"/>
</svg>
