<svg width="24" height="24" viewBox="0 0 24 24" fill="none" xmlns="http://www.w3.org/2000/svg">
  <path
    d="M20.0402 6.82018L14.2802 2.79018C12.7102 1.69018 10.3002 1.75018 8.79023 2.92018L3.78023 6.83018C2.78023 7.61018 1.99023 9.21018 1.99023 10.4702V17.3702C1.99023 19.9202 4.06023 22.0002 6.61023 22.0002H17.3902C19.9402 22.0002 22.0102 19.9302 22.0102 17.3802V10.6002C22.0102 9.25018 21.1402 7.59018 20.0402 6.82018ZM12.7502 18.0002C12.7502 18.4102 12.4102 18.7502 12.0002 18.7502C11.5902 18.7502 11.2502 18.4102 11.2502 18.0002V15.0002C11.2502 14.5902 11.5902 14.2502 12.0002 14.2502C12.4102 14.2502 12.7502 14.5902 12.7502 15.0002V18.0002Z"
    fill="#0071F9"/>
</svg>
