<svg width="135" height="175" viewBox="0 0 135 175" fill="none" xmlns="http://www.w3.org/2000/svg">
<path d="M64.1111 73.03C64.0625 73.3345 63.9841 73.635 63.8763 73.9294C63.6576 74.5305 63.3243 75.0729 62.8937 75.5548C60.9115 77.7764 56.8482 78.6964 52.1659 78.0792C38.8464 70.399 48.4085 59.8347 48.4085 59.8347C49.8482 59.9718 51.2493 60.2502 52.5391 60.7212C59.8907 63.4044 64.8035 68.738 64.1111 73.03Z" fill="#72D98B"/>
<path d="M52.1666 78.0783C50.4052 77.8465 48.5554 77.3976 46.696 76.7189C41.039 74.6525 36.2893 68.0377 34.0616 64.4753C33.3208 63.29 33.9282 61.7273 35.2746 61.3568C38.3192 60.5193 43.5834 59.3773 48.4093 59.8338C47.9385 64.4456 48.1168 71.6391 52.1666 78.0783Z" fill="#72D98B"/>
<path d="M64.1105 73.0286C64.0619 73.3331 63.9835 73.6336 63.8757 73.9279C63.657 74.5291 63.3237 75.0715 62.8931 75.5534C60.8144 75.4585 55.3764 74.9186 49.4158 71.9552C47.3071 70.2946 48.6416 68.5813 48.6416 68.5813C56.2442 73.0234 63.643 72.9784 63.7296 72.9773C63.8629 72.9762 63.9898 72.9929 64.1105 73.0286Z" fill="#00C67F"/>
<path d="M49.4147 71.9552C47.4536 70.9821 45.4354 69.7444 43.4632 68.1764C42.903 67.7312 42.81 66.9137 43.2552 66.3536C43.702 65.7933 44.5178 65.7003 45.078 66.1455C46.2517 67.0791 47.4489 67.8855 48.6406 68.5813C48.823 69.6867 49.0753 70.8155 49.4147 71.9552Z" fill="#00C67F"/>
<path d="M81.3057 19.1582C72.106 19.1582 64.2877 25.1656 61.5543 33.4618C58.2432 31.2345 54.2601 29.9327 49.9783 29.9327C47.1447 29.9327 44.8477 32.2297 44.8477 35.0634C44.8477 37.897 47.1447 40.194 49.9783 40.194C55.7862 40.194 60.5112 44.9191 60.5112 50.7269V109C60.5112 111.834 62.8082 114.131 65.6419 114.131C68.4755 114.131 70.7725 111.834 70.7725 109V39.9526C70.7725 34.1446 75.4974 29.4195 81.3054 29.4195C84.1391 29.4195 86.4361 27.1225 86.4361 24.2889C86.4361 21.4552 84.1393 19.1582 81.3057 19.1582Z" fill="#72D98B"/>
<path d="M93.6529 39.2151C104.781 39.2151 107.779 32.0653 117.289 30.8634C118.597 30.698 119.307 29.2403 118.633 28.1066C111.328 15.8154 102.254 11.2822 93.6529 11.2822C85.5107 11.2822 78.9102 17.5352 78.9102 25.2486C78.9102 32.9621 85.5107 39.2151 93.6529 39.2151Z" fill="#00C67F"/>
<path d="M81.3061 19.1582C79.2175 19.1582 77.2015 19.4708 75.2989 20.0464C74.7896 21.697 74.5117 23.4419 74.5117 25.2489C74.5117 27.313 74.8738 29.2965 75.5314 31.1501C77.1909 30.0576 79.1749 29.4195 81.3061 29.4195C84.1397 29.4195 86.4367 27.1225 86.4367 24.2889C86.4367 21.4552 84.1397 19.1582 81.3061 19.1582Z" fill="#00C67F"/>
<path d="M108.246 1.1647L109.076 2.68174C109.904 4.19579 111.149 5.43993 112.662 6.26762L114.18 7.09754C115.733 7.94691 115.733 10.178 114.18 11.0266L112.662 11.8565C111.148 12.685 109.904 13.9291 109.076 15.4431L108.246 16.9602C107.397 18.5131 105.166 18.5131 104.317 16.9602L103.487 15.4431C102.659 13.9291 101.415 12.685 99.9012 11.8565L98.3834 11.0266C96.8305 10.178 96.8305 7.94691 98.3834 7.09754L99.9012 6.26762C101.415 5.43993 102.659 4.19579 103.487 2.68174L104.317 1.1647C105.166 -0.388233 107.397 -0.388233 108.246 1.1647Z" fill="#F4E74D"/>
<path d="M93.6529 39.2151C104.781 39.2151 107.779 32.0653 117.289 30.8634C118.597 30.698 119.307 29.2403 118.633 28.1066C111.328 15.8154 102.254 11.2822 93.6529 11.2822C85.5107 11.2822 78.9102 17.5352 78.9102 25.2486C78.9102 32.9621 85.5107 39.2151 93.6529 39.2151Z" fill="#72D98B"/>
<path d="M107.132 27.2113C106.906 27.2113 106.676 27.1618 106.459 27.0571C104.089 25.9155 94.4102 24.6567 86.8552 25.8673C86.0081 26.0037 85.212 25.4265 85.0764 24.5799C84.9408 23.7332 85.5172 22.9367 86.3639 22.8011C94.3789 21.5165 104.736 22.7802 107.807 24.259C108.579 24.6311 108.904 25.5592 108.532 26.3318C108.264 26.8873 107.709 27.2113 107.132 27.2113Z" fill="#00C67F"/>
<path d="M38.1294 49.0305C27.0015 49.0305 24.0028 41.8807 14.4935 40.6789C13.1851 40.5135 12.4758 39.0558 13.1494 37.9221C20.4543 25.6308 29.5285 21.0977 38.1294 21.0977C46.2715 21.0977 52.8719 27.3506 52.8719 35.064C52.8721 42.7776 46.2715 49.0305 38.1294 49.0305Z" fill="#00C67F"/>
<path d="M44.8496 35.0633C44.8496 37.8969 47.1466 40.1939 49.9803 40.1939C52.1535 40.1939 54.1747 40.8558 55.8539 41.9878C56.7651 39.8494 57.2713 37.5124 57.2713 35.0633C57.2713 33.6979 57.1104 32.3688 56.8144 31.0876C54.673 30.3401 52.3735 29.9326 49.9803 29.9326C47.1466 29.9326 44.8496 32.2296 44.8496 35.0633Z" fill="#00C67F"/>
<path d="M38.1294 49.0305C27.0015 49.0305 24.0028 41.8807 14.4935 40.6789C13.1851 40.5135 12.4758 39.0558 13.1494 37.9221C20.4543 25.6308 29.5285 21.0977 38.1294 21.0977C46.2715 21.0977 52.8719 27.3506 52.8719 35.064C52.8721 42.7776 46.2715 49.0305 38.1294 49.0305Z" fill="#72D98B"/>
<path d="M24.65 37.0265C24.0721 37.0265 23.5175 36.7025 23.2498 36.1472C22.8778 35.3746 23.2024 34.4467 23.975 34.0744C27.0457 32.5958 37.4025 31.3319 45.4179 32.6165C46.2647 32.7521 46.841 33.5486 46.7052 34.3953C46.5696 35.2421 45.7738 35.8187 44.9264 35.6826C37.3718 34.4721 27.6927 35.7307 25.3226 36.8722C25.1052 36.977 24.8758 37.0265 24.65 37.0265Z" fill="#00C67F"/>
<path d="M45.3022 40.1353L45.9266 41.2777C46.5501 42.4179 47.487 43.3548 48.6264 43.9776L49.7689 44.6026C50.9383 45.2419 50.9383 46.9212 49.7689 47.5605L48.6264 48.1855C47.487 48.8083 46.5501 49.7452 45.9266 50.8847L45.3022 52.0271C44.6622 53.1965 42.9837 53.1965 42.3444 52.0271L41.7194 50.8847C41.0958 49.7452 40.1589 48.8083 39.0195 48.1855L37.877 47.5605C36.7077 46.9212 36.7077 45.2419 37.877 44.6026L39.0195 43.9776C40.1589 43.354 41.0958 42.4179 41.7194 41.2777L42.3444 40.1353C42.9837 38.9666 44.663 38.9666 45.3022 40.1353Z" fill="#F4E74D"/>
<path d="M120.073 109.02C120.073 119.909 119.176 134.71 116.919 148.185C114.398 163.244 101.331 174.259 86.0613 174.259H48.7206C33.451 174.259 20.3842 163.244 17.8622 148.185C15.6057 134.71 14.709 119.909 14.709 109.02H120.073Z" fill="#F7E969"/>
<path d="M67.3916 126.56C85.2835 126.56 105.551 125.067 119.617 123.565C119.93 118.317 120.073 113.357 120.073 109.02H14.71C14.71 119.909 15.6064 134.71 17.8632 148.185C20.3852 163.244 33.4517 174.259 48.7213 174.259H68.4279C48.6309 165.35 44.535 142.15 45.1101 125.927C52.5481 126.316 60.1637 126.56 67.3916 126.56Z" fill="#F5C956"/>
<path d="M134.778 92.0475C134.717 86.0366 129.459 81.396 123.485 82.0641C109.302 83.6503 86.9616 85.4007 67.3913 85.4007C64.0334 85.4007 60.593 85.3481 57.1272 85.2548C47.7389 92.305 45.4812 109.633 64.5418 116.762C65.4971 116.77 66.4483 116.776 67.3913 116.776C86.2999 116.776 107.93 115.056 121.363 113.529C128.243 112.747 133.709 107.317 134.423 100.429C134.705 97.7087 134.806 94.8282 134.778 92.0475Z" fill="#5B91F8"/>
<path d="M64.5418 116.762C55.5313 108.703 54.7745 92.0712 57.1272 85.2547C40.3939 84.8039 23.047 83.3782 11.2975 82.0641C5.32342 81.396 0.065112 86.0369 0.00452605 92.0475C-0.0235638 94.8284 0.0772292 97.7087 0.359229 100.429C1.07332 107.317 6.53955 112.747 13.4199 113.529C26.1823 114.98 46.344 116.604 64.5418 116.762Z" fill="#0466BC"/>
<path d="M45.4828 156.358C49.9477 156.358 53.5672 153.475 53.5672 149.92C53.5672 146.364 49.9477 143.481 45.4828 143.481C41.0179 143.481 37.3984 146.364 37.3984 149.92C37.3984 153.475 41.0179 156.358 45.4828 156.358Z" fill="#FFA1AC"/>
<path d="M89.3021 156.358C93.767 156.358 97.3865 153.475 97.3865 149.92C97.3865 146.364 93.767 143.481 89.3021 143.481C84.8373 143.481 81.2178 146.364 81.2178 149.92C81.2178 153.475 84.8373 156.358 89.3021 156.358Z" fill="#FFA1AC"/>
<path d="M54.0418 144.979C52.9008 144.979 51.9763 144.054 51.9763 142.913C51.9763 141.931 51.1769 141.131 50.1937 141.131C49.2109 141.131 48.4111 141.931 48.4111 142.913C48.4111 144.054 47.4866 144.979 46.3457 144.979C45.2048 144.979 44.2803 144.054 44.2803 142.913C44.2803 139.653 46.9331 137 50.1937 137C53.4544 137 56.1072 139.653 56.1072 142.913C56.1072 144.054 55.1827 144.979 54.0418 144.979Z" fill="#425460"/>
<path d="M88.4392 144.979C87.2986 144.979 86.3738 144.054 86.3738 142.913C86.3738 141.931 85.5743 141.131 84.5912 141.131C83.6083 141.131 82.8086 141.931 82.8086 142.913C82.8086 144.054 81.8841 144.979 80.7432 144.979C79.6022 144.979 78.6777 144.054 78.6777 142.913C78.6777 139.653 81.3306 137 84.5912 137C87.8518 137 90.5047 139.653 90.5047 142.913C90.5047 144.054 89.5799 144.979 88.4392 144.979Z" fill="#425460"/>
<path d="M67.3923 151.336C65.2308 151.336 63.1758 150.4 61.7534 148.768C61.0038 147.908 61.0939 146.603 61.9536 145.854C62.8134 145.105 64.1182 145.194 64.8678 146.054C65.5054 146.786 66.4254 147.205 67.3923 147.205C68.3592 147.205 69.2796 146.786 69.9168 146.054C70.6662 145.194 71.9704 145.105 72.831 145.854C73.6908 146.603 73.7806 147.908 73.0312 148.768C71.6088 150.4 69.5539 151.336 67.3923 151.336Z" fill="#425460"/>
<path d="M45.0844 156.358C49.5492 156.358 53.1687 153.475 53.1687 149.92C53.1687 146.364 49.5492 143.481 45.0844 143.481C40.6195 143.481 37 146.364 37 149.92C37 153.475 40.6195 156.358 45.0844 156.358Z" fill="#FFA1AC"/>
<path d="M88.9037 156.358C93.3686 156.358 96.9881 153.475 96.9881 149.92C96.9881 146.364 93.3686 143.481 88.9037 143.481C84.4388 143.481 80.8193 146.364 80.8193 149.92C80.8193 153.475 84.4388 156.358 88.9037 156.358Z" fill="#FFA1AC"/>
<path d="M53.6433 144.979C52.5024 144.979 51.5779 144.054 51.5779 142.913C51.5779 141.931 50.7784 141.131 49.7953 141.131C48.8124 141.131 48.0127 141.931 48.0127 142.913C48.0127 144.054 47.0882 144.979 45.9473 144.979C44.8063 144.979 43.8818 144.054 43.8818 142.913C43.8818 139.653 46.5347 137 49.7953 137C53.0559 137 55.7088 139.653 55.7088 142.913C55.7088 144.054 54.7843 144.979 53.6433 144.979Z" fill="#425460"/>
<path d="M88.0408 144.979C86.9001 144.979 85.9754 144.054 85.9754 142.913C85.9754 141.931 85.1759 141.131 84.1928 141.131C83.2099 141.131 82.4102 141.931 82.4102 142.913C82.4102 144.054 81.4857 144.979 80.3447 144.979C79.2038 144.979 78.2793 144.054 78.2793 142.913C78.2793 139.653 80.9321 137 84.1928 137C87.4534 137 90.1062 139.653 90.1062 142.913C90.1062 144.054 89.1815 144.979 88.0408 144.979Z" fill="#425460"/>
<path d="M66.9939 151.336C64.8324 151.336 62.7774 150.4 61.355 148.768C60.6054 147.908 60.6954 146.603 61.5552 145.854C62.415 145.105 63.7198 145.194 64.4694 146.054C65.1069 146.786 66.027 147.205 66.9939 147.205C67.9608 147.205 68.8811 146.786 69.5184 146.054C70.2677 145.194 71.572 145.105 72.4326 145.854C73.2923 146.603 73.3821 147.908 72.6328 148.768C71.2104 150.4 69.1554 151.336 66.9939 151.336Z" fill="#425460"/>
</svg>
