<svg width="18" height="18" viewBox="0 0 18 18" fill="none" xmlns="http://www.w3.org/2000/svg">
<path fill-rule="evenodd" clip-rule="evenodd" d="M0.666504 9.00417C0.666504 4.40456 4.40685 0.666016 8.99984 0.666016C13.5928 0.666016 17.3332 4.40456 17.3332 9.00417C17.3332 13.5941 13.5928 17.3327 8.99984 17.3327C4.40685 17.3327 0.666504 13.5941 0.666504 9.00417ZM12.0565 9.84756C12.1449 9.75912 12.2576 9.62244 12.2817 9.59028C12.4104 9.42144 12.4747 9.21241 12.4747 9.00417C12.4747 8.77021 12.4023 8.55314 12.2656 8.37626C12.2544 8.36506 12.2325 8.34117 12.2039 8.31004C12.1503 8.25181 12.0735 8.16821 12.0002 8.09486C11.3406 7.38735 9.61921 6.22961 8.71831 5.87586C8.58156 5.82038 8.23568 5.69898 8.05067 5.69094C7.87371 5.69094 7.70479 5.73114 7.54392 5.81154C7.34282 5.9241 7.18195 6.10097 7.09347 6.31001C7.03716 6.45473 6.94868 6.88888 6.94868 6.89692C6.8602 7.37127 6.81194 8.1431 6.81194 8.99533C6.81194 9.80816 6.8602 10.547 6.93259 11.0294C6.93458 11.0314 6.9415 11.0659 6.95225 11.1195C6.98493 11.2825 7.05301 11.6219 7.12564 11.761C7.3026 12.0987 7.64849 12.3078 8.0185 12.3078H8.05067C8.29199 12.2997 8.79874 12.0907 8.79874 12.0826C9.65138 11.7289 11.3325 10.6274 12.0082 9.8958L12.0565 9.84756Z" fill="#152946"/>
</svg>
