<svg width="24" height="24" viewBox="0 0 24 24" fill="none" xmlns="http://www.w3.org/2000/svg">
  <g clip-path="url(#clip0_26359_134658)">
    <path d="M11.9985 19.75H9.31848C8.15848 19.75 7.14848 19.05 6.74848 17.97C6.33848 16.89 6.63848 15.7 7.50848 14.93L15.4985 7.94C15.9785 7.52 15.9885 6.95 15.8485 6.56C15.6985 6.17 15.3185 5.75 14.6785 5.75H11.9985C11.5885 5.75 11.2485 5.41 11.2485 5C11.2485 4.59 11.5885 4.25 11.9985 4.25H14.6785C15.8385 4.25 16.8485 4.95 17.2485 6.03C17.6585 7.11 17.3585 8.3 16.4885 9.07L8.49848 16.06C8.01848 16.48 8.00848 17.05 8.14848 17.44C8.29848 17.83 8.67848 18.25 9.31848 18.25H11.9985C12.4085 18.25 12.7485 18.59 12.7485 19C12.7485 19.41 12.4085 19.75 11.9985 19.75Z" fill="#0071F9"/>
    <path d="M19.999 15H16.999C15.899 15 14.999 15.9 14.999 17V20C14.999 21.1 15.899 22 16.999 22H19.999C21.099 22 21.999 21.1 21.999 20V17C21.999 15.9 21.099 15 19.999 15ZM18.509 19.5C17.959 19.5 17.509 19.05 17.509 18.5C17.509 17.95 17.949 17.5 18.509 17.5H18.519C19.069 17.5 19.519 17.95 19.519 18.5C19.519 19.05 19.069 19.5 18.509 19.5Z" fill="#0071F9"/>
    <path d="M5.46875 2C3.53875 2 1.96875 3.57 1.96875 5.5C1.96875 7.43 3.53875 9 5.46875 9C7.39875 9 8.96875 7.43 8.96875 5.5C8.96875 3.57 7.40875 2 5.46875 2ZM5.50875 6.5C4.95875 6.5 4.50875 6.05 4.50875 5.5C4.50875 4.95 4.94875 4.5 5.50875 4.5H5.51875C6.06875 4.5 6.51875 4.95 6.51875 5.5C6.51875 6.05 6.06875 6.5 5.50875 6.5Z" fill="#0071F9"/>
  </g>
  <defs>
    <clipPath id="clip0_26359_134658">
      <rect width="24" height="24" fill="white"/>
    </clipPath>
  </defs>
</svg>
