<svg width="16" height="16" viewBox="0 0 16 16" fill="none" xmlns="http://www.w3.org/2000/svg">
<path fill-rule="evenodd" clip-rule="evenodd" d="M5.33301 5.48076V6.66594C5.33301 8.1387 6.52692 9.3326 7.99967 9.3326C9.47243 9.3326 10.6663 8.1387 10.6663 6.66594V5.48076L8.81195 6.30493C8.29482 6.53477 7.70453 6.53477 7.1874 6.30493L5.33301 5.48076ZM12.333 4.74002V7.66594C12.333 7.94208 12.5569 8.16594 12.833 8.16594C13.1092 8.16594 13.333 7.94208 13.333 7.66594V4.29492C13.3269 4.29805 13.3207 4.30104 13.3143 4.30388L12.333 4.74002Z" fill="#152946"/>
<path opacity="0.4" d="M2.68526 3.69491L7.18762 1.69386C7.70475 1.46403 8.29505 1.46403 8.81218 1.69386L13.3145 3.69491C13.5785 3.81222 13.5785 4.18681 13.3145 4.30412L8.81218 6.30517C8.29505 6.53501 7.70475 6.53501 7.18762 6.30517L2.68526 4.30412C2.42132 4.18681 2.42132 3.81222 2.68526 3.69491Z" fill="#152946"/>
<path opacity="0.4" d="M9.53287 10.2659L8.47386 11.3368C8.21292 11.6006 7.78676 11.6006 7.52582 11.3368L6.4668 10.2659C6.3032 10.1005 6.06438 10.03 5.84117 10.0956C3.97108 10.6456 2.6665 11.8881 2.6665 13.3329C2.6665 14.0693 3.26346 14.6662 3.99984 14.6662H11.9998C12.7362 14.6662 13.3332 14.0693 13.3332 13.3329C13.3332 11.8881 12.0286 10.6456 10.1585 10.0956C9.9353 10.03 9.69647 10.1005 9.53287 10.2659Z" fill="#152946"/>
</svg>
