<svg width="105" height="30" viewBox="0 0 105 30" fill="none" xmlns="http://www.w3.org/2000/svg">
<g clip-path="url(#clip0_2443_6190)">
<path d="M0 6.00098V3.16977C0 1.41806 1.41806 0 3.16977 0H30.2159V26.8302C30.2159 28.5819 28.7978 30 27.0461 30H12.0854V24.0481H23.0716C23.6752 24.0481 24.1658 23.5574 24.1658 22.9539V6.00098H0Z" fill="#1479F3"/>
<path d="M0 24.9362V28.106C0 29.8577 1.41806 30 3.16977 30H6.04514V12.002H0V24.9411V24.9362Z" fill="#1479F3"/>
<path d="M36.2954 23.7831C36.1777 23.6653 36.1188 23.5181 36.1188 23.3464V6.69769C36.1188 6.51124 36.1727 6.35422 36.2856 6.23646C36.3985 6.1187 36.5457 6.05981 36.7321 6.05981H43.5869C45.6477 6.05981 47.2719 6.54558 48.4446 7.51713C49.6222 8.48867 50.211 9.90182 50.211 11.7615C50.211 13.6211 49.6222 14.995 48.4446 15.9421C47.267 16.8891 45.6477 17.3601 43.5869 17.3601H39.8283V23.3464C39.8283 23.5328 39.7694 23.6849 39.6516 23.7929C39.5339 23.9057 39.3769 23.9597 39.1904 23.9597H36.737C36.5653 23.9597 36.423 23.9008 36.3003 23.7782M43.4642 14.4946C44.4554 14.4946 45.2061 14.259 45.7262 13.7929C46.2464 13.3267 46.5064 12.6398 46.5064 11.732C46.5064 10.8243 46.2562 10.157 45.7508 9.66138C45.2454 9.1658 44.4848 8.92046 43.4593 8.92046H39.7743V14.4946H43.4593H43.4642Z" fill="#515151"/>
<path d="M54.4553 23.7831C54.3376 23.6653 54.2787 23.5181 54.2787 23.3464V6.69769C54.2787 6.51124 54.3327 6.35422 54.4455 6.23646C54.5584 6.1187 54.7056 6.05981 54.892 6.05981H61.5162C63.6114 6.05981 65.2551 6.54558 66.4377 7.51713C67.6202 8.48867 68.2139 9.86747 68.2139 11.6584C68.2139 12.9048 67.9146 13.945 67.316 14.789C66.7174 15.6329 65.8832 16.2414 64.8086 16.6192L68.5181 23.1403C68.5672 23.2433 68.5966 23.3366 68.5966 23.42C68.5966 23.5721 68.5427 23.6997 68.4298 23.8027C68.317 23.9057 68.1943 23.9548 68.0569 23.9548H65.7066C65.4318 23.9548 65.2208 23.891 65.0687 23.7634C64.9166 23.6359 64.7792 23.469 64.6614 23.263L61.3886 17.2031H57.8852V23.3415C57.8852 23.5132 57.8263 23.6555 57.7085 23.7782C57.5908 23.8959 57.4337 23.9548 57.2473 23.9548H54.892C54.7203 23.9548 54.578 23.8959 54.4553 23.7782M61.4377 14.2885C62.4632 14.2885 63.2286 14.0628 63.7389 13.6113C64.2492 13.1599 64.5044 12.4975 64.5044 11.629C64.5044 10.7605 64.2492 10.0883 63.7389 9.62213C63.2286 9.15108 62.4583 8.92046 61.4377 8.92046H57.8852V14.2934H61.4377V14.2885Z" fill="#515151"/>
<path d="M72.9735 23.7831C72.8558 23.6653 72.7969 23.5181 72.7969 23.3464V6.69772C72.7969 6.51126 72.8508 6.35915 72.9637 6.23648C73.0766 6.11872 73.2238 6.05493 73.4102 6.05493H84.6909C84.8773 6.05493 85.0344 6.11381 85.1521 6.23648C85.2699 6.35424 85.3288 6.51126 85.3288 6.69772V8.41018C85.3288 8.59664 85.2699 8.74875 85.1521 8.8567C85.0344 8.96955 84.8773 9.02353 84.6909 9.02353H76.3003V13.4985H84.1266C84.3131 13.4985 84.4652 13.5574 84.5878 13.6801C84.7056 13.7978 84.7694 13.9548 84.7694 14.1413V15.7507C84.7694 15.9372 84.7105 16.0893 84.5878 16.1972C84.4701 16.3101 84.3131 16.3641 84.1266 16.3641H76.3003V20.9911H84.8921C85.0785 20.9911 85.2306 21.0451 85.3533 21.158C85.4711 21.2708 85.5299 21.418 85.5299 21.6045V23.3415C85.5299 23.5279 85.4711 23.6801 85.3533 23.788C85.2355 23.9009 85.0785 23.9548 84.8921 23.9548H73.4102C73.2385 23.9548 73.0962 23.896 72.9735 23.7782" fill="#515151"/>
<path d="M90.1864 23.7831C90.0687 23.6653 90.0049 23.5181 90.0049 23.3464V6.69769C90.0049 6.51124 90.0589 6.35422 90.1717 6.23646C90.2846 6.1187 90.4318 6.05981 90.6182 6.05981H97.473C99.5338 6.05981 101.158 6.54558 102.331 7.51713C103.508 8.48867 104.097 9.90182 104.097 11.7615C104.097 13.6211 103.508 14.995 102.331 15.9421C101.153 16.8891 99.5338 17.3601 97.473 17.3601H93.7144V23.3464C93.7144 23.5328 93.6555 23.6849 93.5329 23.7929C93.4151 23.9057 93.2581 23.9597 93.0716 23.9597H90.6182C90.4465 23.9597 90.3042 23.9008 90.1815 23.7782M97.3405 14.4946C98.3268 14.4946 99.0824 14.259 99.6025 13.7929C100.123 13.3267 100.383 12.6398 100.383 11.732C100.383 10.8243 100.132 10.157 99.6271 9.66138C99.1217 9.1658 98.3611 8.92046 97.3405 8.92046H93.6555V14.4946H97.3405Z" fill="#515151"/>
<path d="M17.3111 11.9774H12.8999C12.4485 11.9774 12.0804 12.3405 12.0804 12.7968V17.208C12.0804 17.6595 12.4435 18.0275 12.8999 18.0275H17.3111C17.7625 18.0275 18.1305 17.6644 18.1305 17.208V12.7968C18.1305 12.3454 17.7625 11.9774 17.3111 11.9774Z" fill="#FF9E00"/>
</g>
<defs>
<clipPath id="clip0_2443_6190">
<rect width="104.097" height="30" fill="white"/>
</clipPath>
</defs>
</svg>
